# Blender 4.5.2 LTS
# www.blender.org
mtllib Untitled.mtl
o torpedo
v 0.000000 0.000000 2.590196
v -0.111568 -0.046213 2.590196
v -0.046213 -0.111568 2.590196
v 0.046213 -0.111568 2.590196
v 0.111568 -0.046213 2.590196
v 0.111568 0.046213 2.590196
v 0.046213 0.111568 2.590196
v -0.046213 0.111568 2.590196
v -0.111568 0.046213 2.590196
v -0.075989 -0.031476 0.123416
v -0.031476 -0.075989 0.123416
v 0.031476 -0.075989 0.123416
v 0.075989 -0.031476 0.123416
v 0.075989 0.031476 0.123416
v 0.031476 0.075989 0.123416
v -0.031476 0.075989 0.123416
v -0.075989 0.031476 0.123416
v -0.154288 -0.063908 2.491783
v -0.063908 -0.154288 2.491783
v 0.063908 -0.154288 2.491783
v 0.154288 -0.063908 2.491783
v 0.154288 0.063908 2.491783
v 0.063908 0.154288 2.491783
v -0.063908 0.154288 2.491783
v -0.154288 0.063908 2.491783
v -0.154288 -0.063908 0.688327
v -0.063908 -0.154288 0.688327
v 0.063908 -0.154288 0.688327
v 0.154288 -0.063908 0.688327
v 0.154288 0.063908 0.688327
v 0.063908 0.154288 0.688327
v -0.063908 0.154288 0.688327
v -0.154288 0.063908 0.688327
v 0.000000 0.000000 0.145910
v -0.128930 -0.053404 0.145910
v -0.053404 -0.128930 0.145910
v 0.053404 -0.128930 0.145910
v 0.128930 -0.053404 0.145910
v 0.128930 0.053404 0.145910
v 0.053404 0.128930 0.145910
v -0.053404 0.128930 0.145910
v -0.128930 0.053404 0.145910
v -0.105611 -0.043746 -0.004232
v -0.043746 -0.105611 -0.004232
v 0.043746 -0.105611 -0.004232
v 0.105611 -0.043746 -0.004232
v 0.105611 0.043746 -0.004232
v 0.043746 0.105611 -0.004232
v -0.043746 0.105611 -0.004232
v -0.105611 0.043746 -0.004232
v 0.000000 -0.000000 -0.004232
v 0.000000 0.134199 0.551439
v 0.000000 0.221672 0.185817
v 0.000000 0.084050 0.185817
v -0.006760 0.221672 0.438017
v -0.006760 0.121412 0.459085
v 0.006760 0.221672 0.438017
v 0.006760 0.121412 0.459085
v 0.000000 0.221672 0.513728
v 0.000000 -0.134199 0.551439
v 0.000000 -0.221672 0.185817
v 0.000000 -0.084050 0.185817
v -0.006760 -0.221672 0.438017
v -0.006760 -0.121412 0.459085
v 0.006760 -0.221672 0.438017
v 0.006760 -0.121412 0.459085
v 0.000000 -0.221672 0.513728
v 0.134199 0.000000 0.551439
v 0.221672 0.000000 0.185817
v 0.084050 0.000000 0.185817
v 0.221672 0.006760 0.438017
v 0.121412 0.006760 0.459085
v 0.221672 -0.006760 0.438017
v 0.121412 -0.006760 0.459085
v 0.221672 0.000000 0.513728
v -0.134199 0.000000 0.551439
v -0.221672 0.000000 0.185817
v -0.084050 0.000000 0.185817
v -0.221672 0.006760 0.438017
v -0.121412 0.006760 0.459085
v -0.221672 -0.006760 0.438017
v -0.121412 -0.006760 0.459085
v -0.221672 0.000000 0.513728
vn -0.0000 -0.0000 1.0000
vn -0.4582 -0.7823 0.4220
vn -0.8772 -0.2291 0.4220
vn -0.9036 -0.3680 0.2193
vn -0.3787 -0.8991 0.2193
vn 0.2291 -0.8772 0.4220
vn 0.3680 -0.9036 0.2193
vn 0.7823 -0.4582 0.4220
vn 0.8991 -0.3787 0.2193
vn 0.8772 0.2291 0.4220
vn 0.9036 0.3680 0.2193
vn 0.4582 0.7823 0.4220
vn 0.3787 0.8991 0.2193
vn -0.2291 0.8772 0.4220
vn -0.3680 0.9036 0.2193
vn -0.7823 0.4582 0.4220
vn -0.8991 0.3787 0.2193
vn -0.8605 -0.5041 -0.0737
vn -0.9570 -0.2500 -0.1470
vn -0.4999 -0.8535 -0.1470
vn -0.2521 -0.9649 -0.0737
vn 0.2500 -0.9570 -0.1470
vn 0.5041 -0.8605 -0.0737
vn 0.8535 -0.4999 -0.1470
vn 0.9649 -0.2521 -0.0737
vn 0.9570 0.2500 -0.1470
vn 0.8605 0.5041 -0.0737
vn 0.4999 0.8535 -0.1470
vn 0.2521 0.9649 -0.0737
vn -0.2500 0.9570 -0.1470
vn -0.5041 0.8605 -0.0737
vn -0.8535 0.4999 -0.1470
vn -0.9649 0.2521 -0.0737
vn -0.0000 -0.0000 -1.0000
vn -0.8511 -0.4986 -0.1643
vn -0.2493 -0.9544 -0.1643
vn -0.4986 -0.8512 -0.1643
vn -0.9544 -0.2493 -0.1643
vn 0.4986 -0.8511 -0.1643
vn 0.2493 -0.9544 -0.1643
vn 0.9544 -0.2493 -0.1643
vn 0.8512 -0.4986 -0.1643
vn 0.8511 0.4986 -0.1643
vn 0.9544 0.2493 -0.1643
vn 0.2493 0.9544 -0.1643
vn 0.4986 0.8512 -0.1643
vn -0.4986 0.8511 -0.1643
vn -0.2493 0.9544 -0.1643
vn -0.9544 0.2493 -0.1643
vn -0.8512 0.4986 -0.1643
vn -0.0000 1.0000 -0.0000
vn -0.0000 -1.0000 -0.0000
vn 1.0000 -0.0000 -0.0000
vn -1.0000 -0.0000 -0.0000
vn 0.9997 -0.0025 -0.0254
vn 0.9996 -0.0000 -0.0268
vn 0.9999 0.0045 0.0127
vn 0.9989 0.0145 0.0446
vn 0.9997 -0.0026 -0.0254
vn 0.9999 0.0046 0.0127
vn 0.9966 0.0242 0.0789
vn 0.9972 0.0297 0.0689
vn -0.9989 0.0145 0.0446
vn -0.9972 0.0297 0.0689
vn -0.9966 0.0242 0.0789
vn -0.9999 0.0046 0.0127
vn -0.9997 -0.0025 -0.0255
vn -0.9996 -0.0000 -0.0268
vn 0.9999 -0.0046 0.0127
vn 0.9997 0.0025 -0.0255
vn 0.9989 -0.0145 0.0446
vn 0.9972 -0.0297 0.0689
vn 0.9966 -0.0242 0.0789
vn -0.9966 -0.0242 0.0789
vn -0.9972 -0.0297 0.0689
vn -0.9989 -0.0145 0.0446
vn -0.9999 -0.0046 0.0127
vn -0.9997 0.0025 -0.0254
vn -0.9999 -0.0045 0.0127
vn -0.0025 -0.9997 -0.0254
vn -0.0000 -0.9996 -0.0268
vn 0.0045 -0.9999 0.0127
vn 0.0145 -0.9989 0.0446
vn -0.0026 -0.9997 -0.0254
vn 0.0046 -0.9999 0.0127
vn 0.0242 -0.9966 0.0789
vn 0.0297 -0.9972 0.0689
vn 0.0145 0.9989 0.0446
vn 0.0297 0.9972 0.0689
vn 0.0242 0.9966 0.0789
vn 0.0046 0.9999 0.0127
vn -0.0025 0.9997 -0.0255
vn -0.0000 0.9996 -0.0268
vn -0.0046 -0.9999 0.0127
vn 0.0025 -0.9997 -0.0255
vn -0.0145 -0.9989 0.0446
vn -0.0297 -0.9972 0.0689
vn -0.0242 -0.9966 0.0789
vn -0.0242 0.9966 0.0789
vn -0.0297 0.9972 0.0689
vn -0.0145 0.9989 0.0446
vn -0.0046 0.9999 0.0127
vn 0.0026 0.9997 -0.0254
vn -0.0045 0.9999 0.0127
vn 0.0025 0.9997 -0.0254
vt 0.039550 0.606950
vt 0.073570 0.470940
vt 0.097620 0.703150
vt 0.121680 0.470940
vt 0.155700 0.606950
vt 0.155700 0.799320
vt 0.121680 0.935360
vt 0.073570 0.935360
vt 0.039550 0.799320
vt 0.039280 0.152550
vt 0.039280 0.285620
vt 0.078240 0.311080
vt 0.078240 0.127060
vt 0.736970 0.311080
vt 0.953070 0.264390
vt 0.953070 0.173750
vt 0.736970 0.127060
vt 0.547460 0.606310
vt 0.581530 0.470050
vt 0.605610 0.702660
vt 0.629700 0.470050
vt 0.663770 0.606310
vt 0.663770 0.799020
vt 0.629700 0.935280
vt 0.581530 0.935280
vt 0.547460 0.799020
vt 0.933170 0.344960
vt 0.976340 0.517660
vt 0.902640 0.639780
vt 0.872110 0.344960
vt 0.828940 0.517660
vt 0.828940 0.761890
vt 0.872110 0.934590
vt 0.933170 0.934590
vt 0.976340 0.761890
vt 0.788800 0.695540
vt 0.788800 0.491880
vt 0.703170 0.469390
vt 0.703170 0.718030
vt 0.328740 0.843400
vt 0.277480 0.827030
vt 0.328740 0.811290
vt 0.499700 0.827030
vt 0.499890 0.437700
vt 0.499890 0.811290
vt 0.314440 0.539120
vt 0.277360 0.811290
vt 0.251770 0.573840
s 1
f 2/1/1 3/2/1 1/3/1
f 3/2/1 4/4/1 1/3/1
f 4/4/1 5/5/1 1/3/1
f 5/5/1 6/6/1 1/3/1
f 6/6/1 7/7/1 1/3/1
f 7/7/1 8/8/1 1/3/1
f 8/8/1 9/9/1 1/3/1
f 9/9/1 2/1/1 1/3/1
f 3/10/2 2/11/3 18/12/4
f 19/13/5 3/10/2 18/12/4
f 4/11/6 3/10/2 19/13/5
f 20/12/7 4/11/6 19/13/5
f 5/10/8 4/11/6 20/12/7
f 21/13/9 5/10/8 20/12/7
f 6/11/10 5/10/8 21/13/9
f 22/12/11 6/11/10 21/13/9
f 7/10/12 6/11/10 22/12/11
f 23/13/13 7/10/12 22/12/11
f 8/11/14 7/10/12 23/13/13
f 24/12/15 8/11/14 23/13/13
f 9/10/16 8/11/14 24/12/15
f 25/13/17 9/10/16 24/12/15
f 2/11/3 9/10/16 25/13/17
f 18/12/4 2/11/3 25/13/17
f 26/14/18 10/15/19 11/16/20
f 27/17/21 26/14/18 11/16/20
f 19/13/5 18/12/4 26/14/18
f 27/17/21 19/13/5 26/14/18
f 27/17/21 11/16/20 12/15/22
f 28/14/23 27/17/21 12/15/22
f 20/12/7 19/13/5 27/17/21
f 28/14/23 20/12/7 27/17/21
f 28/14/23 12/15/22 13/16/24
f 29/17/25 28/14/23 13/16/24
f 21/13/9 20/12/7 28/14/23
f 29/17/25 21/13/9 28/14/23
f 29/17/25 13/16/24 14/15/26
f 30/14/27 29/17/25 14/15/26
f 22/12/11 21/13/9 29/17/25
f 30/14/27 22/12/11 29/17/25
f 30/14/27 14/15/26 15/16/28
f 31/17/29 30/14/27 15/16/28
f 23/13/13 22/12/11 30/14/27
f 31/17/29 23/13/13 30/14/27
f 31/17/29 15/16/28 16/15/30
f 32/14/31 31/17/29 16/15/30
f 24/12/15 23/13/13 31/17/29
f 32/14/31 24/12/15 31/17/29
f 32/14/31 16/15/30 17/16/32
f 33/17/33 32/14/31 17/16/32
f 25/13/17 24/12/15 32/14/31
f 33/17/33 25/13/17 32/14/31
f 33/17/33 17/16/32 10/15/19
f 26/14/18 33/17/33 10/15/19
f 18/12/4 25/13/17 33/17/33
f 26/14/18 18/12/4 33/17/33
f 35/18/1 36/19/1 34/20/1
f 36/19/1 37/21/1 34/20/1
f 37/21/1 38/22/1 34/20/1
f 38/22/1 39/23/1 34/20/1
f 39/23/1 40/24/1 34/20/1
f 40/24/1 41/25/1 34/20/1
f 41/25/1 42/26/1 34/20/1
f 42/26/1 35/18/1 34/20/1
f 44/27/34 43/28/34 51/29/34
f 45/30/34 44/27/34 51/29/34
f 46/31/34 45/30/34 51/29/34
f 47/32/34 46/31/34 51/29/34
f 48/33/34 47/32/34 51/29/34
f 49/34/34 48/33/34 51/29/34
f 50/35/34 49/34/34 51/29/34
f 43/28/34 50/35/34 51/29/34
f 43/36/35 44/37/36 36/38/37
f 35/39/38 43/36/35 36/38/37
f 44/37/36 45/36/39 37/39/40
f 36/38/37 44/37/36 37/39/40
f 45/36/39 46/37/41 38/38/42
f 37/39/40 45/36/39 38/38/42
f 46/37/41 47/36/43 39/39/44
f 38/38/42 46/37/41 39/39/44
f 47/36/43 48/37/45 40/38/46
f 39/39/44 47/36/43 40/38/46
f 48/37/45 49/36/47 41/39/48
f 40/38/46 48/37/45 41/39/48
f 49/36/47 50/37/49 42/38/50
f 41/39/48 49/36/47 42/38/50
f 50/37/49 43/36/35 35/39/38
f 42/38/50 50/37/49 35/39/38
f 55/40/51 59/41/51 57/42/51
f 53/43/51 55/40/51 57/42/51
f 65/42/52 67/41/52 63/40/52
f 65/42/52 63/40/52 61/43/52
f 71/40/53 75/41/53 73/42/53
f 69/43/53 71/40/53 73/42/53
f 81/42/54 83/41/54 79/40/54
f 81/42/54 79/40/54 77/43/54
f 54/44/55 53/45/56 57/42/57
f 58/46/58 54/44/59 57/42/60
f 59/47/61 52/48/62 58/46/58
f 57/42/60 59/47/61 58/46/58
f 56/46/63 52/48/64 59/47/65
f 55/42/66 56/46/63 59/47/65
f 54/44/67 56/46/63 55/42/66
f 53/45/68 54/44/67 55/42/66
f 65/42/69 61/45/56 62/44/70
f 66/46/71 65/42/69 62/44/70
f 66/46/71 60/48/72 67/47/73
f 65/42/69 66/46/71 67/47/73
f 67/47/74 60/48/75 64/46/76
f 63/42/77 67/47/74 64/46/76
f 63/42/77 64/46/76 62/44/78
f 61/45/68 63/42/79 62/44/78
f 70/44/80 69/45/81 73/42/82
f 74/46/83 70/44/84 73/42/85
f 75/47/86 68/48/87 74/46/83
f 73/42/85 75/47/86 74/46/83
f 72/46/88 68/48/89 75/47/90
f 71/42/91 72/46/88 75/47/90
f 70/44/92 72/46/88 71/42/91
f 69/45/93 70/44/92 71/42/91
f 81/42/94 77/45/81 78/44/95
f 82/46/96 81/42/94 78/44/95
f 82/46/96 76/48/97 83/47/98
f 81/42/94 82/46/96 83/47/98
f 83/47/99 76/48/100 80/46/101
f 79/42/102 83/47/99 80/46/101
f 79/42/102 80/46/101 78/44/103
f 77/45/93 79/42/104 78/44/105
